# xmcd CD database file
#
# Track frame offsets:
#	150
#	14618
#	39722
#	64418
#	95665
#	123115
#	143623
#	168173
#	195595
#	219756
#	244164
#
# Disc length: 3492 seconds
#
# Revision: 0
# Processed by: cddbd v1.5.1PL0 Copyright (c) Steve Scherf et al.
# Submitted via: CDex 1.60beta1
#
DISCID=950da20b
DTITLE=GABA AGONIST (習志野ハードコアフォース) - 忍法！Remixの術
DYEAR=1900
DGENRE=エレクトロニック (一般)
TTITLE0=Welcome
TTITLE1=シノブ参上！
TTITLE2=Moment Of Freedom
TTITLE3=そ・れ・い・ゆ
TTITLE4=給食パニック！
TTITLE5=はいぱぁ☆やっちゅー
TTITLE6=ここにいるから
TTITLE7=Be My Baby
TTITLE8=忍者屋敷大惨事
TTITLE9=Alles Naar De NeKOMIMI(1st Mix)
TTITLE10=Outro
EXTD=
EXTT0=
EXTT1=
EXTT2=
EXTT3=
EXTT4=
EXTT5=
EXTT6=
EXTT7=
EXTT8=
EXTT9=
EXTT10=
PLAYORDER=
